<svg width="50" height="35" viewBox="0 0 50 35" fill="none" xmlns="http://www.w3.org/2000/svg">
<path fill-rule="evenodd" clip-rule="evenodd" d="M12.4822 5.14328L0 17.5C2.49667 19.9716 5.34874 22.0546 8.4583 23.6843C9.3178 25.9413 10.665 28.0579 12.5 29.8744C19.4036 36.7085 30.5965 36.7085 37.5 29.8744C39.335 28.0579 40.6822 25.9413 41.5417 23.6841C44.6512 22.0546 47.5034 19.9716 50 17.5L37.5279 5.15333C37.5186 5.14409 37.5094 5.13485 37.5 5.12563C30.5965 -1.70854 19.4036 -1.70854 12.5 5.12563C12.4941 5.13151 12.4881 5.13739 12.4822 5.14328ZM36.3056 25.9136C32.6681 27.1289 28.8496 27.7513 25 27.7513C21.1504 27.7513 17.332 27.1289 13.6945 25.9136C14.0886 26.4313 14.5237 26.928 15 27.3995C20.5229 32.8669 29.4771 32.8669 35 27.3995C35.4763 26.928 35.9115 26.4313 36.3056 25.9136ZM15.2564 7.353C16.1943 7.96639 17.1915 8.49128 18.235 8.91921C20.3798 9.79866 22.6785 10.2513 25 10.2513C27.3215 10.2513 29.6203 9.79866 31.765 8.91921C32.8085 8.49128 33.8058 7.96638 34.7438 7.35298C29.2897 2.21566 20.7103 2.21567 15.2564 7.353Z" fill="url(#paint0_linear_6_2)"/>
<defs>
<linearGradient id="paint0_linear_6_2" x1="50" y1="17.5" x2="-5.74876e-07" y2="17.5" gradientUnits="userSpaceOnUse">
<stop stop-color="#F59E0B"/>
<stop offset="1" stop-color="#FDE047"/>
</linearGradient>
</defs>
</svg>
